<?xml version="1.0" encoding="utf-8"?>
<!-- Generator: Adobe Illustrator 16.2.1, SVG Export Plug-In . SVG Version: 6.00 Build 0)  -->
<!DOCTYPE svg PUBLIC "-//W3C//DTD SVG 1.1//EN" "http://www.w3.org/Graphics/SVG/1.1/DTD/svg11.dtd">
<svg version="1.1" id="Layer_1" xmlns="http://www.w3.org/2000/svg" xmlns:xlink="http://www.w3.org/1999/xlink" x="0px" y="0px"
	 width="100px" height="100px" viewBox="0 0 100 100" enable-background="new 0 0 100 100" xml:space="preserve">
<g>
	<path fill="#C6C6C5" d="M99.871,37.453c0,20.688-16.758,37.455-37.453,37.455c-7.398,0-14.218-2.084-19.994-5.784l-28.206,28.32
		c-1.617,1.619-3.816,2.427-5.897,2.427c-2.195,0-4.276-0.808-5.895-2.427c-3.235-3.235-3.235-8.555,0-11.791l28.319-28.206
		c-3.699-5.776-5.775-12.595-5.775-19.994C24.97,16.759,41.729,0,62.418,0C83.113,0,99.871,16.759,99.871,37.453z M87.387,37.453
		c0-13.755-11.213-24.97-24.969-24.97c-13.753,0-24.965,11.215-24.965,24.97c0,13.754,11.212,24.967,24.965,24.967
		C76.174,62.42,87.387,51.207,87.387,37.453z"/>
</g>
</svg>
