<svg xmlns="http://www.w3.org/2000/svg" xmlns:xlink="http://www.w3.org/1999/xlink" version="1.1" x="0px" y="0px" width="100px" height="79.031px" viewBox="0 0 100 79.031" enable-background="new 0 0 100 79.031" xml:space="preserve"><style>.styleshare{fill:	#555555;}</style><g><path d="M81.196 53.156v13.396c0 6.816-5.663 12.479-12.479 12.479H12.575C5.758 79 0.1 73.4 0.1 66.6 V16.649c0-6.812 5.659-12.475 12.475-12.475h35.349v5.082c-7.507 1.158-13.86 3.583-19.177 7.393H12.575v49.904h56.143v-4.85 L81.196 53.156z M99.906 29.128c0 0.69-0.35 1.385-0.927 1.73L59.477 57.893c-0.346 0.227-0.695 0.344-1.159 0.3 c-0.344 0-0.689-0.117-0.922-0.23c-0.694-0.346-1.153-1.041-1.153-1.848V41.485c-25.417 0.581-31.42 9.472-31.538 9.5 c-0.345 0.695-1.04 1.041-1.73 1.041H22.51c-0.926-0.232-1.503-1.041-1.616-1.962c0-0.463-0.809-13.169 8.314-22.756 c6.122-6.584 15.25-10.167 27.034-10.513V2.095c0-0.809 0.459-1.499 1.153-1.849c0.578-0.345 1.504-0.345 2.1 0.118l39.503 27 C99.557 27.9 99.9 28.4 99.9 29.128z" class="styleshare"/></g><g></g><g></g><g></g><g></g><g></g><g></g></svg>