<svg xmlns="http://www.w3.org/2000/svg" xmlns:xlink="http://www.w3.org/1999/xlink" version="1.1" x="0px" y="0px" width="366.949px" height="79.434px" viewBox="0 0 366.949 79.434" enable-background="new 0 0 366.949 79.434" xml:space="preserve"><g><path fill="#555657" d="M50.441 30.886c0-4.829-3.916-8.744-8.746-8.744H8.748C3.917 22.1 0 26.1 0 30.886v5.263h9.31v-3.482 c0-1.133 0.647-1.78 1.782-1.78h8.826v39.89h-3.464v8.657h17.533v-8.664h-3.463V30.886h8.826c1.132 0 1.8 0.6 1.8 1.78v3.482 h9.31C50.441 36.1 50.4 33.2 50.4 30.886z"/><path fill="#555657" d="M113.97 70.769c-1.135 0-1.782-0.646-1.782-1.781V46.884c0-4.829-3.916-8.745-8.746-8.745h-7.259 c-4.512 0-8.224 3.416-8.695 7.802h-0.112c-0.471-4.386-4.183-7.802-8.694-7.802l-6.484 0.001v8.744h3.238 c1.134 0 1.8 0.6 1.8 1.782v30.767h10.204V48.617c0-1.215 0.648-1.78 1.781-1.78h11.007c1.132 0 1.8 0.6 1.8 1.782v22.068 c0 4.8 3.9 8.7 8.7 8.745h5.595l1.236-8.664H113.97z"/><path fill="#555657" d="M158.611 70.769c-1.134 0-1.78-0.566-1.78-1.782V30.886c0-4.829-3.916-8.744-8.748-8.744h-6.475v8.744 h3.238c1.134 0 1.8 0.6 1.8 1.78v5.474l-16.591-0.001c-4.83 0-8.746 3.916-8.746 8.745v23.805 c0 4.8 3.9 8.7 8.7 8.745h7.826c4.512 0 8.225-3.417 8.694-7.803h0.113c0.472 4.4 4.2 7.8 8.7 7.803l5.603-0.001 l1.237-8.664H158.611z M146.629 68.989c0 1.215-0.648 1.78-1.782 1.78h-11.574c-1.132 0-1.78-0.566-1.78-1.782V48.619 c0-1.216 0.648-1.782 1.78-1.782h13.356V68.989z"/><path fill="#555657" d="M69.806 70.769v8.664H52.678v-8.657h3.463V48.617c0-1.215-0.648-1.78-1.781-1.78h-1.811v-8.698h5.047 c4.831 0 8.7 3.9 8.7 8.698v23.932H69.806z M66.342 22.142H56.141v10.201h10.201V22.142z"/><path fill="#555657" d="M229.544 38.139c-4.513 0-8.225 3.416-8.696 7.802h-0.112c-0.471-4.386-4.183-7.802-8.694-7.802 l-6.483 0.001v8.744h3.238c1.133 0 1.8 0.6 1.8 1.782v22.103h-3.336v8.664h16.532v-8.664h-2.992V48.664 c0-1.215 0.647-1.78 1.781-1.78h13.509l1.237-8.745H229.544z"/><path fill="#555657" d="M191.598 38.139h-16.544c-4.832 0-8.748 3.916-8.748 8.745v23.804c0 4.8 3.9 8.7 8.7 8.7 l23.244-0.001l1.593-8.663h-21.604c-1.132 0-1.78-0.566-1.78-1.782v-5.194l15.091 0.002c4.833 0 8.747-3.916 8.747-8.745v-8.165 C200.345 42.1 196.4 38.1 191.6 38.139z M190.145 53.267c0 1.216-0.649 1.782-1.78 1.782h-11.857v-6.43 c0-1.216 0.648-1.782 1.78-1.782h10.077c1.131 0 1.8 0.6 1.8 1.782V53.267z"/><path fill="#9C9FA2" d="M273.445 49.249v-0.112c4.009 0 7.802-3.722 7.802-8.694l0.002-9.558c0-4.828-3.915-8.743-8.747-8.743 h-34.731v8.663h5.019v39.964h-5.019v8.664h36.086c4.832 0 8.747-3.916 8.747-8.744V57.946 C282.604 51.9 277.9 49.2 273.4 49.249z M253.396 30.805h15.871c1.132 0 1.8 0.6 1.8 1.783v10.475 c0 1.216-0.648 1.782-1.78 1.782h-15.871V30.805z M272.402 68.987c0 1.216-0.648 1.782-1.78 1.782h-17.226V53.541h17.226 c1.132 0 1.8 0.6 1.8 1.783V68.987z"/><path fill="#9C9FA2" d="M362.789 70.735c-1.374 0-1.957-0.446-2.443-1.138l-7.525-11.351l13.3-20.107h-11.883l-7.196 11.2 l-4.491-7.123c-1.549-2.457-4.574-4.091-7.404-4.091h-6.701v8.698h3.737c1.373 0 2 0.4 2.4 1.138l6.7 10.1 l-14.108 21.357h11.884L347.116 67l5.304 8.342c1.549 2.5 4.6 4.1 7.4 4.091h5.888l1.237-8.698H362.789z"/><path fill="#9C9FA2" d="M315.272 38.16c-2.825 2.243-6.067 3.418-7.839 3.938c-0.878 0.625-1.53 0.944-1.53 0.9 s-0.018-0.248-0.122-0.68c-1.145-0.291-5.239-1.474-8.669-4.211c-4.706 0.144-8.479 3.993-8.479 8.732v23.804 c0 4.8 3.9 8.7 8.7 8.745h17.478c4.832 0 8.746-3.916 8.746-8.745V46.884C323.604 42.2 319.9 38.4 315.3 38.16z M313.404 68.952c0 1.216-0.648 1.782-1.78 1.782h-11.009c-1.132 0-1.78-0.566-1.78-1.782V48.619c0-1.216 0.648-1.782 1.78-1.782 h11.009c1.132 0 1.8 0.6 1.8 1.782V68.952z"/><path fill="#DB6D3C" d="M320.555 26.114c-0.684-7.855-3.878-11.032-3.878-11.032s-0.291 2.231-1.745 4.3 c-1.738 2.487-3.487 3.286-3.487 3.286s3.09-5.372 0.317-13.86C309.13 0.8 301.4 0 301.4 0s2.307 1.4 2.3 4.9 c0 9.406-10.439 10.925-11.616 21.758c-1.237 11.4 11.5 15.1 13.7 15.668c-0.173-0.721-0.586-1.956-1.556-3.418 c-1.54-2.32-4.573-3.684-4.573-9.384c0-6.377 5.823-8.791 5.823-8.791s-0.505 2.7 1 4.8 c1.766 2.5 5.6 2.5 5.6 8.625c0 3.951-2.801 6.586-4.621 7.883C311.175 41 321.5 37 320.6 26.114z"/></g></svg>