<svg xmlns="http://www.w3.org/2000/svg" xmlns:xlink="http://www.w3.org/1999/xlink" version="1.1" x="0px" y="0px" width="393.251px" height="583.091px" viewBox="0 0 393.251 583.091" enable-background="new 0 0 393.251 583.091" xml:space="preserve"><style>.styleflame{fill:	#DE6C2A;}</style><path d="M392.414 359.433c-9.41-108.132-53.378-151.845-53.378-151.845s-4.005 30.701-24.021 59.4 c-23.926 34.229-48 45.238-48 45.238s42.53-73.949 4.368-190.785C235.159 10.5 129.3 0 129.3 0s31.735 18.9 31.7 67.9 c0 129.484-143.692 150.38-159.889 299.489c-17.031 156.7 158 208.1 187.9 215.7 c-2.379-9.921-8.065-26.931-21.413-47.047c-21.211-31.932-62.948-50.71-62.948-129.155c0-87.787 80.154-121.016 80.154-121.016 s-6.95 37.7 13.3 66.361c24.303 34.4 77.2 34.7 77.2 118.711c0 54.386-38.551 90.651-63.606 108.5 C263.305 564.4 405.4 509 392.4 359.433z" class="styleflame"/><g></g><g></g><g></g><g></g><g></g><g></g></svg>